<svg xmlns="http://www.w3.org/2000/svg" xmlns:xlink="http://www.w3.org/1999/xlink" width="500" zoomAndPan="magnify" viewBox="0 0 375 374.999991" height="500" preserveAspectRatio="xMidYMid meet" version="1.0"><defs><clipPath id="ba44b4c5c2"><path d="M 70.527344 114 L 304 114 L 304 261 L 70.527344 261 Z M 70.527344 114 " clip-rule="nonzero"/></clipPath><clipPath id="7e287eefad"><path d="M 352.777344 353.769531 L 361.027344 353.769531 L 361.027344 362.019531 L 352.777344 362.019531 Z M 352.777344 353.769531 " clip-rule="nonzero"/></clipPath></defs><rect x="-37.5" width="450" fill="#ffffff" y="-37.499999" height="449.999989" fill-opacity="1"/><rect x="-37.5" width="450" fill="#e4e2dd" y="-37.499999" height="449.999989" fill-opacity="1"/><path fill="#f1ece1" d="M 100.5 235.96875 C 100.707031 235.476562 98.976562 233.933594 96.65625 232.535156 C 94.332031 231.132812 91.875 229.316406 91.1875 228.492188 C 90.449219 227.605469 88.738281 226.953125 86.992188 226.890625 C 84.175781 226.792969 81.785156 224.621094 82.726562 223.015625 C 83.804688 221.175781 83.285156 220.753906 81.148438 221.730469 C 78.824219 222.792969 74.511719 222.292969 76.121094 221.144531 C 76.554688 220.835938 76.476562 220.203125 75.945312 219.738281 C 75.3125 219.179688 75.519531 218.375 76.550781 217.390625 C 77.414062 216.566406 78.277344 215.625 78.464844 215.300781 C 78.890625 214.578125 85.660156 210.960938 92.609375 207.746094 C 95.464844 206.421875 97.953125 204.976562 98.140625 204.53125 C 98.328125 204.085938 98.796875 204.160156 99.183594 204.703125 C 99.566406 205.242188 100.144531 205.0625 100.464844 204.304688 C 100.785156 203.542969 102.550781 203.015625 104.382812 203.132812 C 106.300781 203.253906 107.636719 202.796875 107.523438 202.066406 C 107.261719 200.394531 110.53125 198.710938 111.472656 200.035156 C 111.875 200.597656 112.117188 200.507812 112.011719 199.832031 C 111.90625 199.15625 113.273438 198.277344 115.050781 197.875 C 116.828125 197.476562 119.269531 196.683594 120.476562 196.121094 C 121.679688 195.554688 123 195.234375 123.410156 195.40625 C 123.820312 195.578125 125.960938 195.101562 128.167969 194.34375 C 130.371094 193.589844 133.703125 192.710938 135.570312 192.398438 C 138.886719 191.835938 138.988281 191.886719 140.023438 194.71875 C 140.609375 196.3125 140.636719 197.9375 140.085938 198.328125 C 139.472656 198.765625 139.820312 199.066406 140.96875 199.101562 C 142.089844 199.140625 142.460938 199.445312 141.882812 199.855469 C 141.351562 200.234375 140.121094 200.214844 139.152344 199.804688 C 136.214844 198.570312 133.953125 198.867188 133.226562 200.585938 C 132.847656 201.484375 133.121094 202.464844 133.828125 202.765625 C 134.535156 203.0625 135.351562 202.613281 135.640625 201.765625 C 135.976562 200.78125 136.75 200.59375 137.769531 201.242188 C 138.652344 201.804688 140.207031 202.011719 141.222656 201.703125 C 142.714844 201.25 142.851562 201.375 141.921875 202.34375 C 141.230469 203.0625 141.332031 204.082031 142.179688 204.894531 C 142.953125 205.640625 143.410156 205.808594 143.191406 205.273438 C 142.621094 203.875 152.691406 202.175781 155.238281 203.242188 C 157.328125 204.121094 157.277344 204.195312 152.746094 206.921875 C 150.199219 208.457031 147.773438 209.441406 147.359375 209.113281 C 146.941406 208.785156 146.414062 208.960938 146.1875 209.503906 C 145.652344 210.777344 148.796875 211.523438 151.078125 210.667969 C 152.046875 210.304688 153.175781 210.480469 153.589844 211.0625 C 154.035156 211.6875 154.253906 211.558594 154.128906 210.742188 C 153.996094 209.90625 154.605469 209.601562 155.675781 209.964844 C 156.644531 210.296875 158.382812 210.847656 159.535156 211.191406 C 161.140625 211.671875 161.351562 212.1875 160.433594 213.382812 C 159.773438 214.242188 158.714844 214.730469 158.082031 214.464844 C 157.449219 214.195312 156.6875 214.558594 156.386719 215.269531 C 155.820312 216.609375 158.945312 217.589844 161.5625 216.890625 C 162.316406 216.691406 163.09375 216.921875 163.292969 217.410156 C 164.019531 219.191406 162.628906 220.589844 160.445312 220.277344 C 158.953125 220.0625 158.191406 220.523438 158.152344 221.667969 C 158.125 222.613281 157.617188 223.179688 157.023438 222.933594 C 156.433594 222.683594 156.125 222.902344 156.335938 223.421875 C 156.546875 223.941406 158.304688 223.648438 160.246094 222.773438 C 162.1875 221.894531 165.0625 221.222656 166.640625 221.28125 C 170.085938 221.402344 173.9375 224 172.347656 225.132812 C 171.667969 225.617188 171.777344 225.835938 172.636719 225.703125 C 173.40625 225.582031 173.957031 224.984375 173.859375 224.375 C 173.707031 223.382812 174.511719 223.410156 176.28125 224.457031 C 176.605469 224.648438 177.558594 224.265625 178.398438 223.613281 C 179.429688 222.808594 180.15625 222.867188 180.644531 223.804688 C 181.117188 224.703125 182.773438 225.277344 185.410156 225.453125 C 188.582031 225.664062 189.554688 226.058594 189.925781 227.277344 C 190.183594 228.132812 189.933594 229.046875 189.367188 229.3125 C 188.050781 229.925781 189.863281 229.691406 197.652344 228.242188 C 201.109375 227.601562 204.273438 227.371094 204.6875 227.734375 C 205.101562 228.101562 206.914062 227.863281 208.710938 227.207031 C 210.511719 226.554688 212.679688 226.3125 213.535156 226.671875 C 214.453125 227.058594 215.507812 226.507812 216.113281 225.324219 C 216.679688 224.226562 217.964844 223.234375 218.976562 223.121094 C 219.984375 223.007812 220.742188 222.472656 220.65625 221.929688 C 220.570312 221.386719 221.359375 220.6875 222.402344 220.367188 C 223.449219 220.050781 224.601562 219.089844 224.964844 218.226562 C 225.328125 217.363281 226.71875 215.972656 228.050781 215.132812 C 229.386719 214.292969 230.355469 213.300781 230.199219 212.921875 C 230.046875 212.542969 230.898438 211.054688 232.097656 209.613281 C 233.296875 208.171875 234.789062 206.265625 235.417969 205.375 C 236.046875 204.484375 236.878906 203.625 237.265625 203.46875 C 237.648438 203.3125 237.742188 202.4375 237.464844 201.527344 C 237.171875 200.554688 237.644531 199.109375 238.621094 198.011719 C 239.53125 196.988281 240.324219 195.792969 240.386719 195.359375 C 240.449219 194.925781 241.1875 194.863281 242.027344 195.214844 C 243.542969 195.855469 243.980469 194.757812 244.015625 190.203125 C 244.027344 188.726562 244.492188 188.457031 245.957031 189.070312 C 247.015625 189.519531 248.800781 189.507812 249.925781 189.050781 C 251.523438 188.398438 252.707031 188.75 255.398438 190.667969 C 257.285156 192.015625 259.042969 193.027344 259.308594 192.921875 C 259.894531 192.683594 268.496094 195.011719 272.800781 196.578125 C 274.527344 197.203125 275.765625 198.136719 275.546875 198.652344 C 275.332031 199.164062 275.882812 199.289062 276.769531 198.925781 C 278.761719 198.113281 282.890625 199.734375 282.316406 201.105469 C 282.082031 201.65625 281.609375 201.710938 281.265625 201.226562 C 280.921875 200.742188 280.109375 200.898438 279.460938 201.574219 C 278.8125 202.246094 278.773438 202.722656 279.371094 202.628906 C 279.972656 202.535156 280.296875 203.238281 280.097656 204.191406 C 279.753906 205.808594 279.875 205.859375 281.988281 205 C 284.96875 203.785156 289.863281 205.890625 290.332031 208.59375 C 290.675781 210.566406 290.710938 210.574219 290.886719 208.753906 C 291.039062 207.148438 291.394531 207.074219 292.921875 208.34375 C 295.351562 210.355469 296.300781 212.476562 294.46875 211.796875 C 293.699219 211.511719 293.957031 212.15625 295.035156 213.230469 L 297 215.179688 L 294.210938 215.449219 C 292.675781 215.597656 290.597656 215.179688 289.585938 214.523438 C 288.578125 213.867188 288.179688 213.808594 288.703125 214.394531 C 289.226562 214.980469 289.132812 215.824219 288.5 216.273438 C 287.863281 216.71875 287.0625 217.71875 286.722656 218.492188 C 286.378906 219.265625 285.082031 219.632812 283.84375 219.308594 C 281.1875 218.609375 280.902344 218.972656 282.007812 221.679688 C 283.148438 224.484375 282.441406 225.605469 280.140625 224.636719 C 279.070312 224.183594 278.273438 224.34375 278.375 224.988281 C 278.488281 225.707031 277.421875 225.480469 275.625 224.402344 C 273.542969 223.152344 273.238281 223.109375 274.582031 224.257812 C 276.558594 225.949219 276.550781 227.796875 274.566406 227.644531 C 273.925781 227.59375 273.601562 227.09375 273.835938 226.53125 C 274.074219 225.964844 273.664062 225.25 272.929688 224.941406 C 272.191406 224.628906 271.597656 223.753906 271.609375 222.992188 C 271.621094 222.164062 271.316406 222.261719 270.855469 223.230469 C 270.433594 224.125 269.636719 224.730469 269.089844 224.578125 C 267.109375 224.019531 266.515625 223.992188 264.175781 224.332031 L 261.800781 224.683594 L 263.828125 225.160156 C 264.945312 225.425781 266.71875 225.675781 267.769531 225.722656 C 272.269531 225.914062 272.878906 226.160156 272.289062 227.558594 C 271.957031 228.351562 271.367188 228.5625 270.980469 228.019531 C 270.597656 227.480469 270.042969 227.605469 269.75 228.300781 C 269.113281 229.8125 264.417969 231.480469 263.960938 230.359375 C 263.785156 229.925781 263.347656 230.273438 262.984375 231.132812 C 262.617188 232.003906 261.179688 232.515625 259.710938 232.289062 C 258.03125 232.03125 256.816406 232.550781 256.3125 233.746094 C 255.777344 235.015625 255.050781 235.277344 254.019531 234.566406 C 253.175781 233.988281 252.894531 232.789062 253.378906 231.867188 C 253.996094 230.695312 253.832031 230.378906 252.820312 230.792969 C 251.808594 231.203125 251.5625 231.953125 251.988281 233.34375 C 252.480469 234.980469 252.328125 235.207031 251.078125 234.679688 C 250.0625 234.253906 249.550781 234.640625 249.511719 235.871094 C 249.464844 237.320312 249.078125 237.410156 247.628906 236.296875 C 246.617188 235.523438 245.617188 235.335938 245.386719 235.882812 C 245.15625 236.425781 243.492188 237.40625 241.683594 238.0625 C 239.871094 238.722656 238.5 239.003906 238.632812 238.6875 C 238.765625 238.371094 237.695312 238.695312 236.25 239.410156 C 234.804688 240.121094 233.117188 240.488281 232.496094 240.226562 C 231.875 239.964844 231.445312 240.25 231.542969 240.859375 C 231.636719 241.46875 230.820312 241.882812 229.730469 241.785156 C 228.636719 241.683594 225.453125 242.382812 222.652344 243.339844 C 219.851562 244.296875 217.027344 244.851562 216.375 244.578125 C 215.722656 244.304688 214.914062 244.746094 214.570312 245.558594 C 214.230469 246.371094 213.632812 246.589844 213.25 246.050781 C 212.863281 245.507812 212.359375 245.515625 212.128906 246.070312 C 211.894531 246.621094 211.054688 246.796875 210.253906 246.460938 C 209.457031 246.125 208.292969 246.386719 207.664062 247.039062 C 207.035156 247.695312 205.980469 248.003906 205.320312 247.722656 C 204.65625 247.445312 203.28125 247.652344 202.257812 248.183594 C 201.230469 248.71875 199.679688 248.597656 198.785156 247.910156 C 197.894531 247.230469 197.308594 247.011719 197.476562 247.429688 C 197.648438 247.847656 195.410156 248.808594 192.507812 249.570312 C 187.253906 250.945312 187.226562 250.941406 186.378906 248.34375 C 185.660156 246.136719 185.425781 245.976562 184.867188 247.296875 C 184.503906 248.160156 183.757812 248.671875 183.207031 248.441406 C 182.65625 248.207031 182.617188 247.726562 183.121094 247.367188 C 183.625 247.007812 183.714844 246.265625 183.324219 245.714844 C 182.933594 245.167969 182.414062 245.191406 182.167969 245.773438 C 181.921875 246.355469 181.304688 246.339844 180.789062 245.734375 C 180.277344 245.132812 180.40625 245.65625 181.070312 246.902344 C 181.734375 248.144531 183.113281 249.515625 184.132812 249.945312 C 185.578125 250.554688 185.074219 250.90625 181.84375 251.5625 C 179.566406 252.023438 177.710938 251.960938 177.722656 251.417969 C 177.730469 250.878906 176.742188 251.066406 175.523438 251.832031 C 174.304688 252.597656 173.035156 252.839844 172.703125 252.375 C 172.371094 251.910156 171.707031 251.804688 171.226562 252.148438 C 170.527344 252.644531 167.179688 252.304688 163.667969 251.375 C 163.402344 251.308594 161.441406 251.246094 159.308594 251.238281 C 154.785156 251.226562 152.960938 250.644531 154.347656 249.660156 C 154.886719 249.273438 154.902344 248.777344 154.375 248.554688 C 153.851562 248.335938 152.785156 248.648438 152.007812 249.253906 C 151.234375 249.859375 148.921875 249.886719 146.871094 249.316406 C 144.820312 248.746094 141.117188 248.429688 138.636719 248.613281 C 133.867188 248.960938 128.601562 247.339844 128.304688 245.425781 C 128.207031 244.796875 127.398438 244.261719 126.511719 244.234375 C 125.625 244.207031 125.066406 243.78125 125.273438 243.292969 C 125.683594 242.316406 122.773438 240.757812 121.636719 241.34375 C 120.335938 242.015625 115.710938 242.304688 114.492188 241.789062 C 113.828125 241.507812 113.101562 240.132812 112.875 238.726562 L 112.460938 236.171875 L 109.097656 237.691406 C 105.800781 239.183594 99.667969 237.949219 100.503906 235.964844 Z M 117.214844 234.421875 C 118.304688 233.289062 118.175781 233.195312 116.246094 233.699219 C 115.023438 234.019531 113.796875 234.324219 113.519531 234.378906 C 113.242188 234.4375 113.675781 234.761719 114.488281 235.101562 C 115.300781 235.445312 116.527344 235.136719 117.214844 234.421875 Z M 95.628906 222.089844 C 96.304688 221.382812 96.308594 220.9375 95.632812 221.042969 C 94.984375 221.144531 94.285156 221.628906 94.078125 222.117188 C 93.503906 223.476562 94.308594 223.464844 95.628906 222.089844 Z M 132.9375 235.011719 C 136.96875 233.519531 138.132812 232.804688 137.179688 232.402344 C 136.957031 232.308594 134.566406 233.054688 131.867188 234.066406 C 129.167969 235.074219 127.339844 236.054688 127.804688 236.25 C 128.269531 236.441406 130.578125 235.882812 132.9375 235.011719 Z M 113.410156 228.40625 C 113.230469 227.957031 112.429688 227.582031 111.628906 227.566406 C 110.746094 227.550781 110.878906 227.871094 111.960938 228.378906 C 112.941406 228.839844 113.59375 228.851562 113.410156 228.40625 Z M 168.101562 244.777344 C 168.488281 243.859375 167.410156 243.851562 164.769531 244.753906 C 162.621094 245.488281 160.820312 246.195312 160.761719 246.332031 C 160.707031 246.464844 162.207031 246.476562 164.09375 246.355469 C 165.984375 246.234375 167.789062 245.523438 168.101562 244.777344 Z M 117.796875 225.429688 C 117.6875 224.730469 117.183594 223.980469 116.671875 223.765625 C 116.160156 223.550781 116.042969 224.203125 116.40625 225.214844 C 117.144531 227.261719 118.109375 227.410156 117.796875 225.429688 Z M 90.664062 211.699219 C 90.882812 211.179688 90.613281 210.5625 90.0625 210.332031 C 89.507812 210.101562 89.140625 210.445312 89.246094 211.101562 C 89.347656 211.757812 89.617188 212.375 89.847656 212.472656 C 90.078125 212.566406 90.445312 212.222656 90.664062 211.699219 Z M 118.484375 222.367188 C 118.691406 221.878906 118.546875 221.035156 118.160156 220.492188 C 117.773438 219.953125 117.179688 220.175781 116.839844 220.984375 C 116.496094 221.796875 116.644531 222.640625 117.164062 222.859375 C 117.683594 223.078125 118.277344 222.855469 118.484375 222.367188 Z M 143.742188 231.265625 C 145.765625 230.054688 145.765625 230.003906 143.726562 230.558594 C 142.515625 230.890625 141.335938 231.605469 141.105469 232.148438 C 140.878906 232.691406 140.886719 233.011719 141.125 232.855469 C 141.363281 232.703125 142.542969 231.984375 143.742188 231.265625 Z M 93.28125 209.460938 C 93.820312 209.074219 93.8125 208.570312 93.261719 208.335938 C 92.710938 208.105469 92.078125 208.339844 91.859375 208.859375 C 91.640625 209.382812 91.648438 209.886719 91.878906 209.984375 C 92.109375 210.082031 92.738281 209.84375 93.28125 209.460938 Z M 116.859375 215.554688 C 117.082031 215.070312 116.292969 215.242188 115.101562 215.929688 C 113.914062 216.617188 112.757812 217.574219 112.535156 218.058594 C 112.3125 218.542969 113.101562 218.375 114.292969 217.683594 C 115.484375 216.996094 116.636719 216.039062 116.859375 215.554688 Z M 124.601562 223.058594 C 125.902344 223.238281 127.253906 222.710938 127.601562 221.886719 C 128.097656 220.710938 128.375 220.742188 128.898438 222.023438 C 129.421875 223.304688 130.351562 223.085938 133.222656 221.003906 C 135.234375 219.542969 136.625 218.992188 136.316406 219.78125 C 135.894531 220.851562 136.199219 220.878906 137.523438 219.878906 C 138.964844 218.792969 139.359375 218.851562 139.628906 220.207031 C 139.898438 221.570312 140.019531 221.597656 140.296875 220.34375 C 140.710938 218.511719 145.632812 215.90625 147.335938 216.621094 C 148 216.902344 148.277344 217.769531 147.945312 218.550781 C 147.617188 219.332031 148.097656 220.277344 149.011719 220.652344 C 150.433594 221.238281 150.527344 221.117188 149.648438 219.808594 C 148.734375 218.449219 148.820312 218.242188 150.433594 217.945312 C 151.960938 217.660156 152.03125 217.515625 150.886719 217.019531 C 149.917969 216.601562 150.21875 216.265625 151.9375 215.847656 C 153.898438 215.367188 154.039062 215.179688 152.695312 214.820312 C 151.785156 214.578125 150.152344 214.652344 149.0625 214.980469 C 146.488281 215.761719 143.511719 214.992188 143.242188 213.484375 C 143.125 212.832031 142.34375 212.402344 141.5 212.535156 C 140.398438 212.707031 140.5 213.273438 141.871094 214.554688 C 143.691406 216.261719 143.519531 216.371094 137.941406 217.070312 C 134.730469 217.472656 131.179688 218.480469 130.042969 219.308594 C 128.910156 220.136719 127.695312 220.417969 127.351562 219.929688 C 127.003906 219.445312 125.695312 219.691406 124.441406 220.480469 C 123.003906 221.382812 121.6875 221.457031 120.878906 220.683594 C 120.132812 219.96875 119.675781 219.945312 119.78125 220.632812 C 119.992188 221.976562 121.214844 222.59375 124.601562 223.058594 Z M 138.214844 226.726562 C 138.867188 226.050781 138.539062 225.609375 137.246094 225.425781 C 136.175781 225.269531 134.855469 225.605469 134.316406 226.167969 C 133.664062 226.84375 133.992188 227.28125 135.285156 227.46875 C 136.355469 227.621094 137.675781 227.289062 138.214844 226.726562 Z M 148.097656 231.429688 C 148.316406 230.90625 148.304688 230.402344 148.078125 230.304688 C 147.847656 230.210938 147.21875 230.445312 146.675781 230.832031 C 146.136719 231.214844 146.144531 231.71875 146.695312 231.953125 C 147.246094 232.183594 147.875 231.949219 148.097656 231.429688 Z M 97.960938 206.765625 C 97.976562 205.882812 97.65625 206.011719 97.148438 207.09375 C 96.6875 208.074219 96.675781 208.730469 97.121094 208.546875 C 97.570312 208.363281 97.945312 207.5625 97.960938 206.765625 Z M 114.996094 210.804688 C 114.894531 210.148438 114.300781 209.40625 113.675781 209.152344 C 112.996094 208.875 112.957031 209.296875 113.578125 210.207031 C 114.902344 212.148438 115.230469 212.285156 114.996094 210.804688 Z M 163.1875 229.984375 C 163.628906 228.941406 163.824219 228.023438 163.621094 227.9375 C 163.421875 227.855469 162.679688 228.542969 161.96875 229.46875 C 161.257812 230.394531 161.0625 231.316406 161.535156 231.515625 C 162.003906 231.714844 162.75 231.023438 163.1875 229.984375 Z M 168.003906 232.824219 C 168.21875 233.347656 168.421875 232.90625 168.457031 231.839844 C 168.492188 230.777344 168.398438 230 168.25 230.117188 C 168.105469 230.234375 167 230.921875 165.796875 231.640625 C 163.828125 232.816406 163.808594 232.894531 165.613281 232.40625 C 166.714844 232.109375 167.789062 232.296875 168.003906 232.824219 Z M 198.398438 243.414062 C 199.960938 242.871094 201.574219 242.90625 201.988281 243.484375 C 202.402344 244.066406 202.929688 244.089844 203.164062 243.539062 C 203.394531 242.988281 204.222656 242.808594 205.003906 243.136719 C 205.785156 243.464844 206.605469 243.308594 206.824219 242.789062 C 207.042969 242.265625 206.820312 241.671875 206.332031 241.464844 C 205.839844 241.257812 204.996094 241.40625 204.457031 241.789062 C 203.914062 242.175781 202.828125 242.21875 202.035156 241.886719 C 201.246094 241.554688 198.675781 242.074219 196.324219 243.042969 C 191.886719 244.867188 193.414062 245.140625 198.398438 243.414062 Z M 130.863281 214.144531 C 131.082031 213.621094 131.074219 213.117188 130.84375 213.019531 C 130.613281 212.925781 129.984375 213.160156 129.441406 213.546875 C 128.902344 213.929688 128.910156 214.433594 129.460938 214.667969 C 130.011719 214.898438 130.644531 214.664062 130.863281 214.144531 Z M 127.875 210.65625 C 128.09375 210.136719 127.847656 209.53125 127.324219 209.3125 C 126.804688 209.09375 126.199219 209.339844 125.980469 209.859375 C 125.761719 210.378906 126.007812 210.984375 126.527344 211.203125 C 127.050781 211.421875 127.652344 211.175781 127.875 210.65625 Z M 179.910156 231.894531 C 179.726562 231.449219 178.925781 231.070312 178.128906 231.058594 C 177.246094 231.039062 177.375 231.359375 178.457031 231.871094 C 179.4375 232.332031 180.09375 232.34375 179.910156 231.894531 Z M 204.808594 239.125 C 204.640625 238.710938 203.886719 239.011719 203.140625 239.796875 C 202.058594 240.929688 202.121094 241.082031 203.445312 240.546875 C 204.363281 240.179688 204.976562 239.539062 204.808594 239.125 Z M 185.925781 229.234375 C 185.382812 227.914062 185.230469 227.976562 185.175781 229.539062 C 185.136719 230.625 185.445312 231.371094 185.859375 231.203125 C 186.273438 231.035156 186.304688 230.148438 185.925781 229.234375 Z M 221.078125 236.148438 C 220.949219 235.304688 220.601562 235.210938 220.023438 235.867188 C 219.554688 236.402344 218.566406 236.589844 217.828125 236.277344 C 217.089844 235.96875 216.3125 236.132812 216.097656 236.640625 C 215.859375 237.207031 216.789062 237.535156 218.492188 237.484375 C 220.023438 237.441406 221.1875 236.839844 221.078125 236.148438 Z M 233.621094 237.359375 C 233.839844 236.839844 233.273438 236.105469 232.359375 235.730469 C 230.9375 235.148438 230.847656 235.265625 231.730469 236.5625 C 233.027344 238.46875 233.136719 238.511719 233.621094 237.359375 Z M 236.640625 235.476562 C 236.824219 235.042969 238.277344 234.570312 239.871094 234.421875 C 241.46875 234.273438 242.917969 233.804688 243.097656 233.378906 C 243.46875 232.492188 234.625 233.046875 233.296875 233.996094 C 232.8125 234.339844 233.289062 234.992188 234.363281 235.441406 C 235.433594 235.894531 236.460938 235.910156 236.640625 235.476562 Z M 244.089844 225.730469 C 244.175781 225.527344 243.710938 224.84375 243.054688 224.214844 C 242.402344 223.585938 241.691406 223.484375 241.480469 223.988281 C 241.265625 224.492188 241.730469 225.175781 242.511719 225.503906 C 243.292969 225.832031 244.003906 225.933594 244.089844 225.730469 Z M 248.042969 225.605469 C 248.582031 225.21875 248.335938 224.613281 247.496094 224.257812 C 246.652344 223.90625 246.046875 224.152344 246.148438 224.808594 C 246.253906 225.464844 246.5 226.066406 246.699219 226.152344 C 246.894531 226.234375 247.5 225.988281 248.042969 225.605469 Z M 253.917969 224.949219 C 253.75 224.535156 252.863281 224.507812 251.949219 224.882812 C 250.628906 225.425781 250.691406 225.582031 252.253906 225.636719 C 253.339844 225.671875 254.085938 225.363281 253.917969 224.949219 Z M 249.050781 219.242188 C 249.234375 218.800781 248.644531 218.417969 247.738281 218.386719 C 246.832031 218.359375 245.816406 218.980469 245.484375 219.769531 C 244.992188 220.9375 245.238281 221.09375 246.796875 220.621094 C 247.851562 220.304688 248.863281 219.683594 249.050781 219.242188 Z M 243.40625 213.746094 C 244.539062 213.554688 244.796875 213.144531 244.257812 212.382812 C 243.832031 211.785156 243.304688 211.714844 243.089844 212.230469 C 242.875 212.742188 241.871094 213.042969 240.859375 212.898438 C 239.554688 212.710938 239.421875 212.835938 240.398438 213.324219 C 241.15625 213.707031 242.511719 213.894531 243.40625 213.746094 Z M 259.859375 220.367188 C 260.105469 219.960938 260.527344 219.257812 260.792969 218.808594 C 261.554688 217.519531 263.34375 217.046875 262.828125 218.273438 C 262.253906 219.640625 263.816406 220.375 265.890625 219.710938 C 266.746094 219.4375 268.554688 218.960938 269.910156 218.652344 C 272.101562 218.15625 272.191406 218.011719 270.730469 217.367188 C 269.828125 216.964844 267.9375 217.105469 266.53125 217.679688 C 265.109375 218.257812 263.769531 218.210938 263.507812 217.566406 C 262.929688 216.152344 261.21875 216.472656 258.671875 218.472656 C 257.132812 219.6875 257.011719 220.097656 258.078125 220.546875 C 258.808594 220.851562 259.609375 220.773438 259.859375 220.367188 Z M 258.578125 217.785156 C 258.796875 217.261719 258.789062 216.757812 258.558594 216.660156 C 258.328125 216.566406 257.699219 216.800781 257.15625 217.1875 C 256.617188 217.570312 256.625 218.078125 257.175781 218.308594 C 257.726562 218.539062 258.359375 218.304688 258.578125 217.785156 Z M 275.308594 218.699219 C 275.367188 216.90625 273.894531 215.808594 273.304688 217.207031 C 273.003906 217.925781 273.460938 218.695312 275.078125 220.1875 C 275.175781 220.277344 275.277344 219.609375 275.308594 218.699219 Z M 249.039062 206.035156 C 249.246094 205.542969 249.101562 204.703125 248.714844 204.160156 C 248.332031 203.621094 247.734375 203.839844 247.394531 204.652344 C 247.050781 205.464844 247.199219 206.308594 247.71875 206.527344 C 248.238281 206.746094 248.835938 206.523438 249.039062 206.035156 Z M 244.730469 203.039062 C 244.949219 202.519531 244.703125 201.914062 244.183594 201.695312 C 243.664062 201.476562 243.058594 201.722656 242.835938 202.242188 C 242.617188 202.761719 242.863281 203.367188 243.386719 203.585938 C 243.90625 203.804688 244.511719 203.558594 244.730469 203.039062 Z M 255.464844 205.332031 C 255.363281 204.675781 254.769531 203.929688 254.144531 203.679688 C 253.464844 203.402344 253.425781 203.824219 254.046875 204.734375 C 255.367188 206.675781 255.695312 206.8125 255.464844 205.332031 Z M 263.507812 208.71875 C 263.726562 208.199219 263.386719 207.519531 262.75 207.214844 C 262.113281 206.90625 262.796875 206.679688 264.265625 206.703125 C 265.992188 206.738281 267.132812 207.21875 267.472656 208.058594 C 267.816406 208.898438 268.964844 208.902344 270.710938 208.0625 C 272.199219 207.347656 272.890625 207.203125 272.246094 207.742188 C 271.039062 208.753906 271.335938 208.78125 277.90625 208.261719 C 279.90625 208.101562 280.390625 208.316406 280.019531 209.199219 C 279.648438 210.082031 279.90625 210.195312 281.128906 209.695312 C 283.546875 208.710938 282.332031 207.210938 279.191406 207.300781 C 277.339844 207.355469 276.34375 206.976562 276.21875 206.175781 C 276.09375 205.367188 275.515625 205.128906 274.453125 205.449219 C 273.363281 205.78125 272.667969 205.417969 272.195312 204.273438 C 271.652344 202.964844 271.167969 202.882812 269.871094 203.886719 C 268.585938 204.882812 267.929688 204.777344 266.808594 203.390625 C 265.949219 202.332031 265.230469 201.988281 265 202.53125 C 264.792969 203.027344 265.078125 203.839844 265.632812 204.339844 C 266.1875 204.839844 265.132812 204.976562 263.289062 204.644531 C 259.390625 203.945312 257.488281 204.898438 258.855469 206.867188 C 260.15625 208.742188 263.019531 209.878906 263.507812 208.71875 Z M 251.734375 197.464844 C 252.152344 196.9375 252.167969 196.191406 251.769531 195.808594 C 251.367188 195.425781 250.558594 196.054688 249.96875 197.207031 C 248.933594 199.234375 250.183594 199.417969 251.734375 197.464844 Z M 265.277344 200.550781 C 265.820312 200.164062 265.808594 199.660156 265.257812 199.425781 C 264.707031 199.195312 264.078125 199.429688 263.859375 199.953125 C 263.640625 200.472656 263.648438 200.976562 263.878906 201.074219 C 264.105469 201.171875 264.738281 200.933594 265.277344 200.550781 Z M 288.117188 208.496094 C 288.179688 208.347656 287.695312 207.710938 287.039062 207.082031 C 286.320312 206.394531 285.621094 206.480469 285.277344 207.300781 C 284.929688 208.121094 285.359375 208.679688 286.351562 208.714844 C 287.261719 208.742188 288.054688 208.644531 288.117188 208.496094 Z M 79.363281 208.289062 C 79.648438 205.148438 83.121094 198.496094 84.238281 198.949219 C 84.90625 199.222656 85.042969 198.984375 84.617188 198.273438 C 83.949219 197.152344 84.070312 195.171875 84.96875 192.589844 C 85.25 191.789062 88.664062 186.328125 92.558594 180.460938 C 99.636719 169.789062 105.992188 161.523438 105.011719 164.261719 C 104.5625 165.519531 104.6875 165.578125 105.941406 164.703125 C 106.738281 164.148438 107.3125 163.210938 107.21875 162.617188 C 107.128906 162.019531 107.800781 162.175781 108.726562 162.964844 C 109.941406 164 110.507812 163.976562 110.792969 162.875 C 111.011719 162.039062 110.960938 160.867188 110.6875 160.273438 C 110.414062 159.683594 110.269531 159.859375 110.371094 160.667969 C 110.480469 161.558594 110.007812 161.90625 109.160156 161.550781 C 108.359375 161.214844 108.183594 160.3125 108.746094 159.425781 C 109.28125 158.578125 110.179688 158.21875 110.738281 158.621094 C 111.300781 159.027344 111.679688 158.851562 111.582031 158.234375 C 111.375 156.894531 115.183594 152.714844 116.851562 152.453125 C 117.5 152.355469 118.488281 151.378906 119.046875 150.292969 C 119.601562 149.203125 120.394531 148.453125 120.804688 148.625 C 121.214844 148.796875 121.898438 148.113281 122.324219 147.101562 C 122.75 146.089844 124.199219 145.023438 125.542969 144.734375 C 126.886719 144.445312 127.84375 143.855469 127.667969 143.429688 C 127.492188 143 128.457031 142.546875 129.804688 142.421875 C 131.15625 142.292969 132.445312 141.421875 132.667969 140.480469 C 132.902344 139.5 134.152344 138.75 135.601562 138.726562 C 136.992188 138.699219 138.460938 137.882812 138.871094 136.910156 C 139.371094 135.726562 140.011719 135.515625 140.808594 136.28125 C 141.617188 137.058594 142.25 136.828125 142.78125 135.5625 C 143.308594 134.308594 144.207031 133.96875 145.523438 134.523438 C 147.09375 135.183594 147.523438 134.890625 147.691406 133.039062 C 147.863281 131.179688 148.160156 130.976562 149.226562 132 C 150.007812 132.753906 150.472656 132.785156 150.363281 132.082031 C 150.261719 131.429688 150.949219 130.917969 151.890625 130.949219 C 152.832031 130.980469 153.535156 130.566406 153.449219 130.035156 C 153.308594 129.117188 159.359375 129.65625 160.714844 130.679688 C 161.0625 130.941406 161.546875 130.6875 161.789062 130.109375 C 162.035156 129.535156 162.769531 129.578125 163.421875 130.207031 C 164.078125 130.835938 164.785156 130.9375 165 130.433594 C 165.210938 129.925781 166.046875 129.792969 166.859375 130.136719 C 167.671875 130.476562 168.261719 130.277344 168.167969 129.691406 C 167.996094 128.585938 171.335938 128.152344 172.660156 129.105469 C 173.070312 129.402344 174.355469 129.332031 175.507812 128.953125 C 177.355469 128.351562 189.003906 128.421875 191.761719 129.054688 C 192.320312 129.183594 193.449219 129.179688 194.273438 129.046875 C 195.09375 128.914062 196.027344 129.171875 196.34375 129.613281 C 196.660156 130.058594 198.171875 130.332031 199.707031 130.21875 C 206.035156 129.757812 212.683594 130.480469 214.03125 131.777344 C 214.929688 132.636719 215.398438 132.695312 215.28125 131.9375 C 215.015625 130.261719 220.0625 130.253906 224.03125 131.925781 C 225.828125 132.683594 227.441406 132.96875 227.613281 132.558594 C 227.785156 132.148438 228.804688 132.109375 229.878906 132.46875 C 231.855469 133.128906 231.890625 133.910156 230.109375 137.371094 C 229.152344 139.226562 229.503906 139.445312 241.542969 144.414062 C 251.078125 148.351562 254.023438 149.921875 254.21875 151.171875 C 254.433594 152.546875 254.644531 152.632812 255.550781 151.734375 C 256.394531 150.898438 256.703125 151.121094 256.976562 152.765625 C 257.171875 153.917969 258.125 155.195312 259.097656 155.605469 C 260.066406 156.015625 260.828125 156.832031 260.785156 157.421875 C 260.738281 158.011719 261.835938 159.082031 263.214844 159.804688 C 264.597656 160.523438 265.589844 161.445312 265.417969 161.855469 C 265.246094 162.261719 265.554688 162.785156 266.105469 163.015625 C 266.660156 163.246094 267.023438 162.878906 266.914062 162.199219 C 266.789062 161.386719 267.554688 161.566406 269.136719 162.71875 C 272.5625 165.21875 272.945312 166.582031 270.59375 167.921875 C 269.484375 168.554688 269.070312 168.917969 269.667969 168.730469 C 270.265625 168.546875 271.441406 169.238281 272.277344 170.273438 C 273.640625 171.957031 274.515625 172.582031 278.617188 174.828125 C 279.238281 175.167969 279.300781 176.511719 278.753906 177.8125 C 277.882812 179.878906 278.171875 180.351562 281.011719 181.550781 C 284.203125 182.890625 285.953125 185.855469 283.441406 185.664062 C 281.085938 185.480469 281.53125 187.035156 283.988281 187.558594 C 285.328125 187.84375 286.519531 188.664062 286.628906 189.378906 C 286.742188 190.097656 287.636719 191.023438 288.613281 191.433594 C 291.410156 192.613281 291.070312 194.652344 287.882812 195.824219 C 285.496094 196.699219 284.917969 196.589844 284.6875 195.226562 C 284.457031 193.855469 284.3125 193.789062 283.855469 194.84375 C 283.53125 195.589844 282.804688 195.644531 282.109375 194.976562 C 281.453125 194.351562 280.695312 194.351562 280.417969 194.984375 C 280.109375 195.699219 279.808594 195.664062 279.621094 194.890625 C 279.457031 194.210938 278.039062 193.128906 276.472656 192.492188 C 274.902344 191.851562 272.636719 190.085938 271.441406 188.5625 C 269.074219 185.550781 267.035156 184.976562 264.222656 186.519531 C 262.585938 187.414062 262.476562 187.355469 263.085938 185.910156 C 263.824219 184.160156 260.636719 182.207031 259.378906 183.640625 C 258.964844 184.113281 257.003906 183.914062 255.019531 183.199219 C 253.035156 182.484375 251.28125 182.210938 251.117188 182.589844 C 250.957031 182.96875 248.988281 182.375 246.742188 181.273438 C 244.496094 180.167969 242.726562 179.683594 242.804688 180.191406 C 242.886719 180.703125 241.40625 180.550781 239.515625 179.859375 C 237.625 179.164062 235.320312 178.320312 234.390625 177.980469 C 233.460938 177.640625 231.894531 177.664062 230.90625 178.035156 C 229.699219 178.492188 228.871094 178.25 228.378906 177.300781 C 227.292969 175.210938 222.273438 174.023438 220.082031 175.339844 C 219.03125 175.972656 217.691406 176.0625 217.101562 175.546875 C 216.515625 175.027344 214.34375 174.59375 212.277344 174.585938 C 207.632812 174.566406 205.859375 172.085938 209.777344 171.089844 C 212.640625 170.359375 214.199219 170.742188 212.707031 171.808594 C 212.113281 172.230469 212.714844 172.386719 214.066406 172.171875 C 216.03125 171.855469 216.671875 172.140625 217.472656 173.679688 C 218.328125 175.324219 218.46875 175.3125 218.527344 173.585938 C 218.574219 172.058594 218.886719 171.875 219.851562 172.800781 C 220.597656 173.515625 221.585938 173.523438 222.257812 172.820312 C 222.886719 172.167969 224.117188 172.023438 224.992188 172.5 C 228.289062 174.300781 229.929688 174.492188 229.976562 173.078125 C 230.019531 171.710938 223.917969 168.917969 222.316406 169.570312 C 221.949219 169.71875 221.039062 169.089844 220.292969 168.171875 C 219.257812 166.894531 218.929688 166.851562 218.894531 167.988281 C 218.859375 169.023438 216.890625 169.269531 212.398438 168.796875 C 208.851562 168.425781 205.78125 168.527344 205.570312 169.023438 C 205.363281 169.523438 204.007812 169.214844 202.5625 168.335938 C 200.847656 167.300781 199.5625 167.132812 198.871094 167.847656 C 198.175781 168.574219 197.210938 168.4375 196.058594 167.457031 C 194.496094 166.121094 194.257812 166.257812 193.882812 168.691406 C 193.597656 170.558594 193.082031 171.265625 192.253906 170.929688 C 191.335938 170.558594 191.273438 170.761719 191.984375 171.785156 C 193.035156 173.300781 191.445312 176.304688 189.664062 176.167969 C 187.925781 176.03125 187.964844 170.519531 189.707031 170.246094 C 190.605469 170.105469 190.542969 169.542969 189.523438 168.597656 C 188.492188 167.644531 187.152344 167.515625 185.53125 168.222656 C 184.191406 168.804688 182.136719 168.917969 180.972656 168.46875 C 178.945312 167.691406 178.921875 167.722656 180.425781 169.203125 C 181.292969 170.054688 182.410156 170.472656 182.90625 170.132812 C 183.433594 169.777344 184.609375 170.304688 185.71875 171.398438 C 187.777344 173.429688 187.75 173.425781 180.078125 170.746094 C 179.15625 170.421875 177.660156 170.460938 176.757812 170.828125 C 175.855469 171.195312 173.9375 171 172.496094 170.394531 C 170.441406 169.527344 169.863281 169.683594 169.816406 171.121094 C 169.78125 172.199219 169.472656 172.546875 169.0625 171.972656 C 168.683594 171.4375 167.308594 171.527344 166.015625 172.175781 C 164.71875 172.824219 162.992188 173.140625 162.179688 172.875 C 159.394531 171.964844 159.042969 171.972656 156.445312 173.042969 C 153.878906 174.101562 153.875 174.113281 156.078125 174.109375 C 157.304688 174.109375 159.882812 174.53125 161.808594 175.050781 L 165.3125 175.992188 L 161.957031 177.347656 C 160.109375 178.089844 156.566406 178.769531 154.078125 178.851562 C 151.59375 178.933594 149.234375 179.179688 148.835938 179.398438 C 148.4375 179.613281 146.285156 179.988281 144.050781 180.226562 C 141.816406 180.464844 139.195312 180.953125 138.222656 181.308594 C 137.25 181.667969 136.117188 181.816406 135.707031 181.640625 C 135.292969 181.46875 133.003906 181.972656 130.617188 182.757812 C 128.230469 183.546875 126.042969 183.859375 125.753906 183.453125 C 125.464844 183.046875 124.320312 183.355469 123.210938 184.136719 C 120.902344 185.761719 119.855469 185.609375 119.984375 183.65625 C 120.035156 182.914062 119.878906 183.078125 119.632812 184.027344 C 119.160156 185.863281 113.089844 188.828125 111.320312 188.089844 C 109.945312 187.515625 104.097656 191.449219 103.886719 193.09375 C 103.796875 193.789062 103.539062 193.910156 103.316406 193.359375 C 102.957031 192.472656 98.402344 194.59375 97.984375 195.839844 C 97.890625 196.109375 96.660156 196.84375 95.242188 197.472656 C 92.1875 198.824219 85.949219 204.375 85.03125 206.554688 C 84.1875 208.558594 81.117188 211.023438 80.035156 210.566406 C 79.570312 210.371094 79.265625 209.34375 79.363281 208.289062 Z M 113.652344 186.21875 C 113.992188 185.40625 113.738281 184.824219 113.082031 184.929688 C 112.425781 185.03125 111.71875 185.515625 111.511719 186.003906 C 111.304688 186.496094 111.5625 187.074219 112.085938 187.292969 C 112.605469 187.511719 113.308594 187.027344 113.652344 186.21875 Z M 101.699219 180.203125 C 101.796875 179.972656 101.5625 179.339844 101.175781 178.800781 C 100.789062 178.261719 100.285156 178.269531 100.054688 178.820312 C 99.820312 179.371094 100.058594 180 100.578125 180.21875 C 101.097656 180.441406 101.605469 180.429688 101.699219 180.203125 Z M 130.25 174.273438 C 130.925781 173.566406 130.929688 173.121094 130.253906 173.226562 C 129.605469 173.328125 128.90625 173.808594 128.699219 174.300781 C 128.125 175.660156 128.929688 175.648438 130.25 174.273438 Z M 137.871094 168.347656 C 138.027344 167.953125 138.023438 166.832031 137.859375 165.851562 C 137.625 164.449219 137.40625 164.535156 136.832031 166.253906 C 136.179688 168.1875 137.15625 170.148438 137.871094 168.347656 Z M 152.082031 169.039062 C 152.414062 168.257812 152.515625 167.550781 152.308594 167.464844 C 152.105469 167.378906 151.421875 167.84375 150.792969 168.496094 C 150.167969 169.152344 150.066406 169.859375 150.570312 170.074219 C 151.074219 170.285156 151.753906 169.820312 152.082031 169.039062 Z M 147.003906 165.230469 C 147.222656 164.707031 147.214844 164.203125 146.984375 164.105469 C 146.753906 164.011719 146.125 164.246094 145.582031 164.632812 C 145.042969 165.015625 145.050781 165.519531 145.601562 165.753906 C 146.152344 165.984375 146.785156 165.75 147.003906 165.230469 Z M 156.464844 169.214844 C 156.6875 168.695312 156.464844 168.097656 155.976562 167.894531 C 155.484375 167.6875 154.640625 167.832031 154.101562 168.21875 C 153.558594 168.601562 153.78125 169.199219 154.59375 169.539062 C 155.402344 169.882812 156.246094 169.734375 156.464844 169.214844 Z M 153.71875 165.152344 C 154.050781 164.367188 152.398438 163.152344 151.691406 163.65625 C 151.230469 163.984375 151.476562 164.511719 152.234375 164.832031 C 152.992188 165.152344 153.660156 165.296875 153.71875 165.152344 Z M 191.109375 174.265625 C 191.449219 173.453125 191.183594 172.875 190.519531 172.980469 C 189.851562 173.082031 189.382812 173.667969 189.480469 174.277344 C 189.738281 175.933594 190.410156 175.929688 191.109375 174.265625 Z M 151.464844 154.628906 C 152.109375 153.101562 151.945312 152.710938 150.84375 153.15625 C 150.023438 153.492188 149.441406 154.351562 149.550781 155.0625 C 149.863281 157.058594 150.503906 156.914062 151.464844 154.628906 Z M 152.324219 146.753906 C 152.511719 146.734375 152.035156 146.113281 151.265625 145.375 C 150.496094 144.636719 150.042969 144.464844 150.257812 144.988281 C 150.472656 145.515625 149.832031 146.402344 148.835938 146.957031 C 147.207031 147.871094 147.273438 147.910156 149.503906 147.378906 C 150.867188 147.054688 152.136719 146.769531 152.324219 146.753906 Z M 190.460938 161.246094 C 191.003906 160.859375 190.996094 160.355469 190.445312 160.125 C 189.890625 159.890625 189.261719 160.128906 189.042969 160.648438 C 188.824219 161.167969 188.832031 161.671875 189.0625 161.769531 C 189.292969 161.867188 189.921875 161.628906 190.460938 161.246094 Z M 171.859375 151.183594 C 172.078125 150.664062 171.378906 149.867188 170.308594 149.417969 C 169.238281 148.964844 168.445312 149.132812 168.546875 149.789062 C 168.648438 150.445312 169.347656 151.238281 170.097656 151.554688 C 170.847656 151.871094 171.640625 151.703125 171.859375 151.183594 Z M 238.539062 176.417969 C 239.214844 175.710938 239.21875 175.265625 238.539062 175.371094 C 237.890625 175.472656 237.191406 175.957031 236.988281 176.445312 C 236.414062 177.808594 237.21875 177.792969 238.539062 176.417969 Z M 232.984375 173.765625 C 233.4375 173.445312 233.203125 172.929688 232.46875 172.621094 C 231.734375 172.3125 231.203125 172.503906 231.289062 173.050781 C 231.375 173.597656 231.605469 174.113281 231.804688 174.199219 C 232.003906 174.28125 232.535156 174.085938 232.984375 173.765625 Z M 179.5 150.058594 C 180.730469 150.089844 181.324219 149.679688 180.90625 149.09375 C 180.507812 148.53125 179.117188 148.34375 177.8125 148.675781 C 175.265625 149.324219 176.054688 149.972656 179.5 150.058594 Z M 279.003906 191.34375 C 279.742188 190.578125 279.582031 190.179688 278.523438 190.144531 C 277.648438 190.117188 277.011719 190.574219 277.101562 191.160156 C 277.332031 192.640625 277.726562 192.679688 279.003906 191.34375 Z M 277.691406 186.609375 C 277.609375 186.085938 277.023438 185.480469 276.386719 185.257812 C 275.492188 184.953125 275.441406 185.074219 276.164062 185.792969 C 276.679688 186.308594 276.566406 187.351562 275.917969 188.109375 C 274.941406 189.253906 275.007812 189.324219 276.289062 188.527344 C 277.144531 187.996094 277.773438 187.132812 277.691406 186.609375 Z M 273.472656 185.058594 C 273.691406 184.539062 273.121094 183.804688 272.207031 183.429688 C 270.789062 182.847656 270.695312 182.964844 271.578125 184.261719 C 272.878906 186.167969 272.984375 186.210938 273.472656 185.058594 Z M 192.832031 145.652344 C 193.449219 143.816406 190.972656 142.832031 190.222656 144.617188 C 190.015625 145.113281 190.378906 145.433594 191.035156 145.332031 C 191.691406 145.226562 192.039062 145.59375 191.808594 146.148438 C 191.574219 146.699219 191.570312 147.226562 191.800781 147.324219 C 192.027344 147.417969 192.492188 146.667969 192.832031 145.652344 Z M 225.105469 159.679688 C 225.433594 158.898438 225.277344 158.078125 224.757812 157.859375 C 224.238281 157.640625 223.542969 158.101562 223.214844 158.878906 C 222.886719 159.660156 223.042969 160.480469 223.5625 160.699219 C 224.082031 160.917969 224.777344 160.457031 225.105469 159.679688 Z M 171.757812 135.542969 C 172.199219 134.5 172.15625 133.480469 171.667969 133.277344 C 171.179688 133.070312 170.488281 133.78125 170.125 134.855469 C 169.765625 135.929688 169.808594 136.949219 170.21875 137.121094 C 170.628906 137.292969 171.320312 136.582031 171.757812 135.542969 Z M 241.589844 165.511719 C 242.421875 165.71875 244.347656 165.910156 245.871094 165.933594 C 247.390625 165.960938 249.140625 166.460938 249.761719 167.050781 C 250.464844 167.726562 250.804688 167.617188 250.671875 166.761719 C 250.335938 164.613281 241.519531 162.609375 238.382812 163.964844 C 236.605469 164.730469 236.445312 165.117188 237.890625 165.128906 C 239.09375 165.132812 240.757812 165.304688 241.589844 165.511719 Z M 198.359375 147.121094 C 197.820312 146.582031 196.757812 146.136719 195.996094 146.125 C 195.234375 146.113281 195.675781 146.550781 196.976562 147.097656 C 198.277344 147.648438 198.902344 147.65625 198.359375 147.121094 Z M 176.417969 136.390625 C 176.957031 136.003906 176.949219 135.5 176.398438 135.265625 C 175.847656 135.035156 175.214844 135.269531 174.996094 135.792969 C 174.777344 136.3125 174.785156 136.816406 175.015625 136.914062 C 175.246094 137.011719 175.875 136.773438 176.417969 136.390625 Z M 268.277344 175.511719 C 268.09375 175.066406 267.292969 174.6875 266.496094 174.671875 C 265.613281 174.65625 265.742188 174.976562 266.824219 175.484375 C 267.804688 175.945312 268.457031 175.957031 268.277344 175.511719 Z M 182.746094 138.5625 C 182.839844 138.332031 182.605469 137.703125 182.21875 137.160156 C 181.835938 136.621094 181.328125 136.628906 181.097656 137.179688 C 180.867188 137.730469 181.101562 138.363281 181.621094 138.582031 C 182.144531 138.800781 182.648438 138.792969 182.746094 138.5625 Z M 180.726562 135.417969 C 181.054688 134.636719 181.15625 133.929688 180.953125 133.839844 C 180.746094 133.753906 180.066406 134.21875 179.4375 134.875 C 178.808594 135.53125 178.707031 136.238281 179.210938 136.453125 C 179.714844 136.664062 180.398438 136.199219 180.726562 135.417969 Z M 205.945312 146.269531 C 206.101562 145.527344 207.15625 145.507812 208.582031 146.21875 C 210.09375 146.972656 211.167969 146.914062 211.527344 146.066406 C 212.230469 144.386719 211.683594 144.160156 206.855469 144.148438 C 204.714844 144.140625 202.839844 143.832031 202.6875 143.460938 C 202.535156 143.085938 201.96875 143.246094 201.429688 143.808594 C 200.785156 144.480469 201.347656 145.296875 203.066406 146.171875 C 204.703125 147.007812 205.785156 147.042969 205.945312 146.269531 Z M 188.515625 136.238281 C 190.554688 136.050781 192.46875 135.910156 192.765625 135.929688 C 193.066406 135.945312 194.398438 136.050781 195.730469 136.164062 C 197.0625 136.277344 198.296875 136.023438 198.476562 135.597656 C 198.875 134.652344 194.140625 134.082031 189.464844 134.511719 C 187.550781 134.6875 185.453125 134.613281 184.800781 134.339844 C 184.148438 134.070312 183.433594 134.273438 183.214844 134.796875 C 182.636719 136.171875 184.300781 136.625 188.515625 136.238281 Z M 216.808594 145.320312 C 218.652344 143.824219 218.644531 143.726562 216.71875 144.304688 C 215.554688 144.65625 214.441406 145.3125 214.25 145.769531 C 213.640625 147.21875 214.710938 147.027344 216.808594 145.320312 Z M 224.011719 146.402344 C 224.179688 146.003906 223.585938 145.117188 222.695312 144.433594 C 221.492188 143.507812 221.058594 143.628906 221.019531 144.894531 C 220.980469 146.109375 220.695312 146.222656 220.035156 145.296875 C 219.449219 144.472656 219.183594 144.457031 219.308594 145.257812 C 219.519531 146.628906 223.507812 147.597656 224.011719 146.402344 Z M 244.609375 149.335938 C 245.28125 148.855469 245.222656 148.605469 244.472656 148.726562 C 243.769531 148.835938 243.207031 148.296875 243.21875 147.535156 C 243.230469 146.695312 242.933594 146.789062 242.464844 147.769531 C 241.59375 149.605469 242.894531 150.554688 244.609375 149.335938 Z M 249.761719 152.050781 C 249.21875 151.511719 249.105469 150.832031 249.507812 150.546875 C 249.914062 150.257812 249.632812 149.761719 248.882812 149.449219 C 247.851562 149.015625 247.644531 149.292969 248.035156 150.578125 C 248.316406 151.511719 249.042969 152.449219 249.648438 152.652344 C 250.332031 152.886719 250.375 152.660156 249.761719 152.050781 Z M 228.222656 137.890625 C 228.679688 137.707031 228.351562 137.371094 227.484375 137.148438 C 226.621094 136.921875 225.539062 136.894531 225.082031 137.082031 C 224.621094 137.269531 224.953125 137.605469 225.816406 137.828125 C 226.679688 138.050781 227.761719 138.078125 228.222656 137.890625 Z M 185.355469 174.695312 C 184.472656 173.398438 184.566406 173.277344 185.984375 173.863281 C 186.898438 174.238281 187.46875 174.972656 187.25 175.492188 C 186.761719 176.644531 186.65625 176.601562 185.355469 174.695312 Z M 195.824219 173.648438 C 196.019531 173.183594 197.179688 173.296875 198.398438 173.898438 C 199.617188 174.5 200.285156 175.226562 199.878906 175.515625 C 198.839844 176.257812 195.394531 174.671875 195.824219 173.648438 Z M 194.480469 169.898438 C 195.019531 168.441406 195.433594 167.792969 195.40625 168.457031 C 195.34375 169.796875 199.925781 171.097656 201.289062 170.128906 C 202.710938 169.117188 203.964844 170.144531 202.796875 171.363281 C 202.007812 172.183594 202.398438 172.695312 204.238281 173.242188 C 205.625 173.65625 206.417969 174.234375 206.003906 174.53125 C 205.585938 174.828125 203.261719 174.199219 200.835938 173.132812 C 198.265625 172.003906 196.074219 171.589844 195.589844 172.140625 C 194.097656 173.84375 193.480469 172.605469 194.480469 169.898438 Z M 194.480469 169.898438 " fill-opacity="1" fill-rule="nonzero"/><g clip-path="url(#ba44b4c5c2)"><path fill="#1e1e1e" d="M 298.621094 204.765625 C 298.011719 204.507812 297.882812 204.152344 298.332031 203.96875 C 299.746094 203.390625 297.320312 198.347656 295.746094 198.59375 C 294.855469 198.734375 294.683594 198.535156 295.308594 198.089844 C 295.878906 197.683594 295.785156 196.820312 295.105469 196.167969 C 294.414062 195.503906 294.375 194.621094 295.011719 194.167969 C 295.703125 193.675781 295.636719 193.433594 294.851562 193.558594 C 294.132812 193.667969 293.0625 192.449219 292.476562 190.847656 C 291.714844 188.777344 291.222656 188.320312 290.773438 189.269531 C 290.425781 190.007812 290.160156 189.457031 290.183594 188.046875 C 290.207031 186.640625 289.726562 185.566406 289.109375 185.660156 C 287.367188 185.933594 288.128906 182.152344 291.125 175.636719 C 292.632812 172.355469 293.769531 169.050781 293.652344 168.296875 C 293.535156 167.539062 293.8125 167.078125 294.265625 167.273438 C 294.722656 167.464844 295.617188 165.960938 296.257812 163.929688 C 296.894531 161.902344 298.066406 158.257812 298.859375 155.832031 C 299.652344 153.410156 300.460938 150.941406 300.652344 150.351562 C 301.195312 148.667969 299.371094 144.382812 297.640625 143.285156 C 296.046875 142.273438 291.234375 146.003906 289.828125 149.339844 C 288.535156 152.414062 276.867188 165.5 275.460938 165.457031 C 274.675781 165.433594 274.421875 165.132812 274.898438 164.792969 C 275.375 164.453125 273.535156 162.335938 270.808594 160.085938 C 268.082031 157.839844 266.007812 155.625 266.203125 155.167969 C 266.394531 154.710938 265.527344 154.242188 264.273438 154.128906 C 262.859375 154 262.367188 153.652344 262.976562 153.21875 C 263.996094 152.492188 260.40625 149.113281 258.011719 148.554688 C 257.257812 148.378906 257.089844 147.914062 257.636719 147.523438 C 258.515625 146.898438 248.875 140.589844 246.566406 140.273438 C 246.128906 140.214844 245.953125 139.738281 246.171875 139.21875 C 246.390625 138.699219 246.230469 138.1875 245.816406 138.085938 C 245.398438 137.984375 243.789062 137.304688 242.238281 136.578125 C 239.746094 135.414062 239.433594 134.613281 239.574219 129.753906 C 239.660156 126.726562 239.398438 124.109375 238.992188 123.9375 C 238.585938 123.765625 238.53125 122.960938 238.875 122.148438 C 239.214844 121.339844 238.957031 120.757812 238.300781 120.859375 C 237.648438 120.964844 237.300781 120.597656 237.53125 120.046875 C 238.089844 118.71875 235.523438 117.679688 234.136719 118.667969 C 233.539062 119.09375 232.058594 121.5 230.851562 124.011719 C 229.644531 126.523438 228.425781 128.671875 228.148438 128.78125 C 227.867188 128.894531 224.777344 128.039062 221.28125 126.882812 C 217.785156 125.726562 214.894531 124.847656 214.855469 124.9375 C 214.820312 125.023438 213.222656 124.648438 211.304688 124.105469 C 208.339844 123.261719 205.851562 122.777344 201.78125 122.246094 C 201.34375 122.1875 200.144531 121.851562 199.113281 121.492188 C 198.082031 121.132812 196.285156 121.230469 195.125 121.703125 C 193.625 122.3125 193.160156 122.214844 193.515625 121.359375 C 193.910156 120.425781 193.664062 120.304688 192.410156 120.8125 C 191.523438 121.175781 189.816406 121.058594 188.617188 120.554688 C 187.421875 120.050781 186.253906 120.089844 186.019531 120.640625 C 185.789062 121.191406 185.234375 121.132812 184.792969 120.511719 C 184.347656 119.886719 183.054688 119.9375 181.914062 120.621094 C 180.128906 121.691406 179.804688 121.617188 179.546875 120.074219 C 179.328125 118.769531 179.101562 118.617188 178.710938 119.511719 C 178.417969 120.191406 177.859375 120.304688 177.476562 119.761719 C 177.089844 119.222656 176.511719 119.402344 176.191406 120.160156 C 175.871094 120.921875 174.175781 121.453125 172.425781 121.34375 C 169.804688 121.179688 169.003906 120.664062 167.90625 118.4375 C 167.175781 116.949219 165.519531 115.285156 164.230469 114.742188 C 161.988281 113.796875 161.824219 113.964844 160.332031 118.75 C 159.226562 122.289062 158.210938 123.96875 156.847656 124.523438 C 155.789062 124.957031 155.234375 125.441406 155.621094 125.601562 C 156.003906 125.765625 153.851562 126.789062 150.839844 127.878906 C 147.828125 128.964844 145.171875 130.3125 144.9375 130.871094 C 144.703125 131.429688 144 131.84375 143.371094 131.796875 C 142.054688 131.695312 141.683594 135.335938 142.953125 135.871094 C 143.417969 136.066406 144.035156 135.699219 144.332031 135.058594 C 144.625 134.417969 147.371094 133.289062 150.429688 132.554688 C 153.492188 131.820312 155.925781 130.757812 155.835938 130.199219 C 155.75 129.636719 156.4375 129.761719 157.363281 130.472656 C 158.289062 131.183594 158.820312 132.488281 158.542969 133.371094 C 157.714844 135.996094 157.578125 136.875 157.558594 139.792969 C 157.492188 148.929688 156.84375 154.058594 155.210938 158.304688 C 152.640625 164.996094 152.628906 165.125 154.773438 163.835938 C 156.515625 162.789062 156.714844 163.082031 156.964844 167.050781 C 157.117188 169.453125 156.972656 171.765625 156.648438 172.191406 C 156.324219 172.621094 156.96875 172.695312 158.078125 172.355469 C 161.261719 171.394531 161.136719 173.382812 157.941406 174.554688 C 156.363281 175.132812 154.902344 176.015625 154.691406 176.515625 C 154.480469 177.015625 154.027344 177.199219 153.683594 176.925781 C 153.339844 176.652344 151.875 176.554688 150.429688 176.710938 C 148.148438 176.957031 147.882812 176.765625 148.414062 175.261719 C 149.839844 171.203125 151.105469 168.710938 152.390625 167.425781 C 153.355469 166.460938 153.316406 165.867188 152.261719 165.421875 C 151.433594 165.070312 150.160156 165.664062 149.429688 166.738281 C 145.617188 172.339844 144.71875 174.292969 145.296875 175.710938 C 145.777344 176.886719 145.226562 177.554688 143.027344 178.449219 C 140.644531 179.417969 139.964844 179.3125 139.199219 177.839844 C 137.910156 175.363281 135.660156 175.972656 135.023438 178.972656 C 134.730469 180.34375 133.695312 181.789062 132.722656 182.1875 C 130.667969 183.023438 125.996094 180.332031 127.558594 179.21875 C 128.230469 178.742188 127.867188 178.457031 126.527344 178.414062 C 125.386719 178.378906 124.878906 178.175781 125.390625 177.964844 C 126.289062 177.601562 120.804688 167.777344 119.363281 167.167969 C 118.976562 167.007812 117.449219 164.984375 115.960938 162.671875 C 113.871094 159.421875 113.574219 158.097656 114.640625 156.824219 C 115.398438 155.917969 116.460938 154.28125 117.003906 153.1875 C 117.546875 152.097656 118.230469 151.542969 118.527344 151.960938 C 118.824219 152.378906 120.308594 151.574219 121.820312 150.175781 C 123.335938 148.777344 126.042969 146.554688 127.839844 145.238281 C 129.636719 143.917969 131.128906 142.140625 131.15625 141.28125 C 131.183594 140.425781 131.488281 140.121094 131.835938 140.609375 C 132.933594 142.152344 141.035156 136.988281 141.164062 134.667969 C 141.269531 132.695312 141.128906 132.660156 138.277344 133.941406 C 136.628906 134.683594 135.050781 135.824219 134.777344 136.476562 C 134.503906 137.128906 133.238281 137.886719 131.96875 138.160156 C 130.699219 138.4375 128.207031 139.796875 126.429688 141.1875 C 124.652344 142.574219 120.390625 145.914062 116.953125 148.601562 C 113.515625 151.292969 110.210938 153.277344 109.609375 153.011719 C 109.007812 152.75 106.757812 150.304688 104.605469 147.585938 C 102.457031 144.863281 100.230469 142.710938 99.65625 142.800781 C 99.082031 142.890625 98.894531 142.300781 99.234375 141.488281 C 99.890625 139.929688 95.015625 137.152344 93.507812 138.222656 C 91.996094 139.300781 93.03125 147.773438 95.328125 153.097656 C 96.605469 156.058594 97.417969 159.03125 97.136719 159.707031 C 96.851562 160.382812 96.976562 161.085938 97.414062 161.269531 C 98.695312 161.808594 98.527344 167.140625 97.21875 167.34375 C 95.292969 167.644531 94.492188 170.988281 96.058594 172.1875 C 97.167969 173.039062 96.992188 173.125 95.355469 172.53125 C 94.160156 172.097656 93.015625 172.050781 92.8125 172.425781 C 92.609375 172.800781 91.816406 174.058594 91.050781 175.226562 C 90.285156 176.390625 90.058594 177.917969 90.542969 178.617188 C 91.183594 179.539062 90.96875 179.699219 89.761719 179.203125 C 88.738281 178.78125 87.792969 179.246094 87.300781 180.414062 C 86.863281 181.453125 86.984375 182.507812 87.566406 182.753906 C 88.285156 183.054688 88.164062 183.457031 87.195312 183.992188 C 86.410156 184.425781 84.65625 186.570312 83.304688 188.757812 C 80.4375 193.402344 71.117188 215.5625 70.863281 218.347656 C 70.6875 220.246094 74.757812 226.078125 75.324219 224.738281 C 75.488281 224.351562 75.878906 225.222656 76.191406 226.683594 C 76.542969 228.300781 77.554688 229.5 78.796875 229.761719 C 79.914062 229.996094 80.667969 230.574219 80.46875 231.042969 C 80.273438 231.511719 83.144531 233.324219 86.851562 235.074219 L 86.851562 235.070312 C 90.558594 236.820312 98.34375 240.066406 104.148438 242.285156 C 109.957031 244.503906 116.101562 246.960938 117.800781 247.746094 C 119.5 248.527344 120.828125 248.765625 120.75 248.269531 C 120.671875 247.777344 122.820312 248.253906 125.527344 249.332031 C 128.234375 250.410156 132.484375 251.8125 134.972656 252.449219 C 137.464844 253.085938 140.148438 253.851562 140.941406 254.148438 C 142.140625 254.601562 149.492188 256.253906 159.777344 258.382812 C 168.445312 260.175781 181.441406 261.183594 181.898438 260.097656 C 182.066406 259.699219 182.953125 259.679688 183.871094 260.046875 C 186.28125 261.011719 202.808594 259.714844 206.054688 258.304688 C 206.429688 258.140625 208.738281 257.863281 211.183594 257.683594 C 213.625 257.507812 216.066406 256.90625 216.601562 256.34375 C 217.136719 255.785156 218.214844 255.597656 218.996094 255.925781 C 220.425781 256.53125 228.382812 254.773438 233.621094 252.699219 C 235.179688 252.082031 237.679688 251.34375 239.179688 251.054688 C 243.765625 250.175781 280.332031 235.402344 280.828125 234.230469 C 281.082031 233.621094 281.625 233.269531 282.035156 233.441406 C 282.804688 233.765625 288.597656 229.804688 288.3125 229.148438 C 288.222656 228.941406 289.570312 227.867188 291.304688 226.757812 C 293.042969 225.648438 295.585938 223.605469 296.957031 222.210938 C 298.332031 220.816406 300.253906 219.433594 301.230469 219.136719 C 302.210938 218.839844 303.277344 217.960938 303.605469 217.183594 C 304.300781 215.539062 300.25 205.449219 298.621094 204.765625 Z M 240.628906 144.167969 C 241.863281 144.28125 243.195312 144.828125 243.589844 145.382812 C 243.984375 145.9375 245.390625 147.074219 246.710938 147.910156 C 250.214844 150.128906 257.898438 156.640625 260.042969 159.210938 C 261.0625 160.429688 262.277344 161.59375 262.746094 161.792969 C 264.585938 162.585938 271.535156 171.617188 271.097656 172.652344 C 270.84375 173.261719 269.394531 175.179688 267.878906 176.914062 C 266.363281 178.652344 264.886719 180.671875 264.597656 181.398438 C 264.289062 182.179688 262.851562 182.355469 261.109375 181.824219 C 259.480469 181.324219 256.773438 180.609375 255.09375 180.230469 C 253.414062 179.851562 249.808594 178.882812 247.085938 178.074219 C 244.359375 177.269531 241.164062 176.523438 239.984375 176.417969 L 239.984375 176.414062 C 236.601562 176.109375 234.332031 175.183594 234.152344 174.042969 C 234.0625 173.46875 234.539062 169.363281 235.207031 164.921875 C 235.878906 160.480469 236.613281 155.167969 236.839844 153.121094 C 237.710938 145.207031 238.242188 143.949219 240.628906 144.167969 Z M 246.851562 184.082031 C 246.039062 183.738281 245.554688 183.035156 245.773438 182.511719 C 245.992188 181.992188 246.574219 181.734375 247.0625 181.941406 C 247.554688 182.148438 248.039062 182.851562 248.140625 183.507812 C 248.242188 184.164062 247.664062 184.421875 246.851562 184.082031 Z M 234.164062 191.554688 C 233.835938 192.335938 233.402344 192.902344 233.195312 192.816406 C 232.992188 192.730469 232.847656 191.917969 232.878906 191.011719 C 232.90625 190.105469 233.34375 189.535156 233.847656 189.75 C 234.351562 189.960938 234.496094 190.773438 234.164062 191.554688 Z M 218.621094 186.125 C 219.007812 186.664062 219.242188 187.296875 219.148438 187.523438 C 219.050781 187.753906 218.546875 187.761719 218.023438 187.542969 C 217.503906 187.324219 217.269531 186.695312 217.5 186.140625 C 217.734375 185.589844 218.238281 185.582031 218.621094 186.125 Z M 200.472656 223.9375 C 201.375 223.976562 203.253906 223.679688 204.648438 223.277344 C 206.328125 222.789062 206.273438 223 204.488281 223.910156 C 203.003906 224.664062 201.125 224.960938 200.308594 224.570312 C 199.054688 223.96875 199.078125 223.871094 200.472656 223.9375 Z M 207.800781 197.789062 C 209.097656 196.09375 211.144531 195.941406 210.453125 197.589844 C 210.257812 198.046875 209.285156 198.667969 208.285156 198.972656 C 206.796875 199.421875 206.710938 199.210938 207.800781 197.789062 Z M 173.628906 136.207031 C 172.011719 130.632812 171.667969 126.09375 173.003906 127.972656 C 173.414062 128.546875 175.058594 128.429688 176.660156 127.710938 C 178.453125 126.90625 179.535156 126.886719 179.472656 127.664062 C 179.421875 128.355469 179.792969 129.097656 180.300781 129.3125 C 180.808594 129.523438 181.125 129.074219 181.007812 128.304688 C 180.863281 127.382812 181.210938 127.316406 182.03125 128.101562 C 182.714844 128.757812 184.3125 129.03125 185.582031 128.707031 C 186.847656 128.382812 188.675781 128.4375 189.640625 128.824219 C 190.605469 129.210938 192.644531 128.921875 194.171875 128.1875 C 195.699219 127.453125 196.453125 127.269531 195.851562 127.78125 C 195.246094 128.292969 195.203125 128.898438 195.753906 129.132812 C 196.304688 129.363281 196.953125 129.082031 197.195312 128.507812 C 197.4375 127.929688 198.148438 127.949219 198.777344 128.550781 C 199.402344 129.152344 200.335938 129.222656 200.851562 128.710938 C 201.492188 128.066406 201.640625 128.1875 201.316406 129.097656 C 200.949219 130.136719 201.527344 130.292969 204.015625 129.839844 C 205.757812 129.519531 206.699219 129.601562 206.105469 130.023438 C 205.414062 130.519531 205.925781 131.085938 207.527344 131.613281 C 208.90625 132.0625 210.15625 132.128906 210.3125 131.757812 C 210.46875 131.390625 211.203125 131.128906 211.949219 131.183594 C 212.695312 131.234375 212.171875 130.984375 210.789062 130.628906 C 208.582031 130.058594 208.539062 129.941406 210.429688 129.664062 C 211.613281 129.488281 213.179688 129.929688 213.914062 130.644531 C 214.652344 131.355469 217.503906 133.144531 220.253906 134.617188 C 223.003906 136.085938 225.304688 137.402344 225.359375 137.539062 C 225.417969 137.675781 222.824219 144.691406 219.597656 153.125 C 216.375 161.5625 213.53125 169.507812 213.285156 170.78125 C 212.921875 172.664062 212.417969 172.925781 210.625 172.167969 C 209.410156 171.65625 207.859375 171.816406 207.179688 172.523438 C 206.269531 173.472656 205.273438 173.355469 203.394531 172.082031 C 201.3125 170.671875 200.835938 170.675781 200.789062 172.09375 C 200.742188 173.5625 200.492188 173.535156 199.171875 171.90625 C 197.851562 170.277344 197.601562 170.25 197.554688 171.738281 C 197.519531 172.871094 197.066406 173.21875 196.28125 172.71875 C 194.5625 171.625 189.03125 171.714844 188.554688 172.84375 C 188.339844 173.359375 187.625 173.269531 186.96875 172.640625 C 186.238281 171.9375 185.550781 172.042969 185.179688 172.917969 C 184.003906 175.710938 178.863281 173.460938 179.3125 170.347656 C 179.453125 169.367188 179.699219 168.355469 179.863281 168.105469 C 180.027344 167.851562 179.671875 166.3125 179.074219 164.6875 C 178.476562 163.0625 177.882812 160.316406 177.753906 158.585938 C 177.148438 150.523438 175.363281 142.828125 174.144531 143.015625 C 173.332031 143.144531 173.277344 142.902344 174.003906 142.386719 C 174.691406 141.894531 174.539062 139.332031 173.628906 136.207031 Z M 203.277344 176.410156 C 204.597656 176.097656 205.792969 176.125 205.9375 176.476562 C 206.078125 176.824219 205.402344 177.242188 204.433594 177.40625 C 201.609375 177.875 200.636719 177.035156 203.277344 176.410156 Z M 181.832031 225.859375 C 181.625 226.347656 181.03125 226.570312 180.511719 226.351562 C 179.988281 226.128906 179.84375 225.289062 180.183594 224.476562 C 180.527344 223.664062 181.121094 223.441406 181.507812 223.984375 C 181.890625 224.523438 182.039062 225.367188 181.832031 225.859375 Z M 182.53125 205.675781 C 182.460938 205.839844 182.023438 205.8125 181.558594 205.617188 C 181.078125 205.414062 181.847656 203.699219 183.351562 201.636719 C 184.800781 199.644531 186.617188 196.855469 187.382812 195.441406 C 188.152344 194.027344 189.441406 192.601562 190.25 192.269531 C 191.308594 191.839844 191.324219 192.257812 190.304688 193.78125 C 187.390625 198.136719 182.652344 205.386719 182.53125 205.675781 Z M 180.351562 208.203125 C 179.890625 209.300781 178.972656 210.28125 178.316406 210.382812 C 177.628906 210.492188 177.589844 209.800781 178.222656 208.769531 C 179.785156 206.226562 181.363281 205.804688 180.351562 208.203125 Z M 168.441406 191.613281 C 169.351562 190.660156 169.949219 189.511719 169.765625 189.066406 C 169.238281 187.769531 171.058594 188.867188 172.191406 190.53125 C 172.769531 191.378906 172.742188 191.847656 172.125 191.601562 C 171.519531 191.355469 170.902344 191.996094 170.753906 193.03125 C 170.5625 194.359375 169.945312 194.679688 168.636719 194.128906 C 167.125 193.492188 167.089844 193.03125 168.441406 191.613281 Z M 166.445312 197.839844 C 166 198.019531 166.011719 197.367188 166.472656 196.386719 C 166.980469 195.304688 167.300781 195.171875 167.285156 196.054688 C 167.269531 196.855469 166.890625 197.65625 166.445312 197.839844 Z M 158.191406 215.835938 C 157.972656 216.359375 157.605469 216.703125 157.375 216.609375 C 157.148438 216.511719 156.875 215.894531 156.773438 215.238281 C 156.671875 214.582031 157.039062 214.238281 157.589844 214.46875 C 158.140625 214.699219 158.410156 215.316406 158.191406 215.835938 Z M 165.21875 207.09375 C 165.601562 207.636719 165.839844 208.265625 165.742188 208.496094 C 165.644531 208.726562 165.140625 208.734375 164.621094 208.515625 C 164.097656 208.296875 163.863281 207.664062 164.09375 207.113281 C 164.328125 206.5625 164.832031 206.554688 165.21875 207.09375 Z M 174.003906 187.550781 C 172.253906 188.265625 172.0625 188.191406 172.570312 186.988281 C 172.890625 186.226562 173.894531 185.625 174.804688 185.65625 C 175.710938 185.683594 176.355469 185.9375 176.238281 186.21875 C 176.117188 186.5 175.113281 187.101562 174.003906 187.550781 Z M 82.472656 206.847656 C 82.449219 207.605469 81.765625 208.328125 80.953125 208.457031 C 79.921875 208.617188 79.859375 208.289062 80.742188 207.367188 C 81.441406 206.640625 81.660156 205.898438 81.226562 205.714844 C 79.59375 205.027344 88.9375 188.042969 93.671875 183.097656 C 95.332031 181.359375 96.414062 179.753906 98.507812 175.902344 C 99.535156 174.019531 100.734375 172.328125 101.171875 172.152344 C 102.03125 171.800781 105.609375 178.167969 105.128906 179.183594 C 104.96875 179.519531 105.621094 181.210938 106.582031 182.945312 C 109.507812 188.234375 109.242188 190.339844 105.355469 192.59375 C 103.488281 193.675781 99.929688 195.359375 97.441406 196.339844 C 94.921875 197.328125 93.015625 198.710938 93.132812 199.460938 C 93.25 200.199219 92.570312 200.777344 91.625 200.75 C 90.679688 200.71875 89.738281 201.09375 89.535156 201.582031 C 89.328125 202.066406 87.664062 203.140625 85.839844 203.96875 C 84.011719 204.792969 82.5 206.089844 82.472656 206.847656 Z M 183.460938 256.390625 C 182.160156 255.84375 181.71875 255.402344 182.480469 255.414062 C 183.242188 255.425781 184.304688 255.875 184.847656 256.410156 C 185.386719 256.949219 184.761719 256.9375 183.460938 256.390625 Z M 192.691406 256.746094 C 191.183594 256.808594 190.070312 256.578125 190.214844 256.230469 C 190.648438 255.207031 195.140625 254.769531 195.289062 255.738281 C 195.367188 256.226562 194.195312 256.679688 192.691406 256.746094 Z M 245.800781 241.988281 C 244.894531 241.960938 244.308594 241.570312 244.496094 241.121094 C 244.683594 240.671875 245.582031 240.328125 246.488281 240.359375 C 247.394531 240.386719 247.984375 240.777344 247.792969 241.226562 C 247.605469 241.675781 246.707031 242.019531 245.800781 241.988281 Z M 274.191406 232.226562 C 269.773438 233.996094 265.558594 236.066406 264.828125 236.828125 C 264.097656 237.589844 263.359375 237.867188 263.1875 237.449219 C 262.878906 236.691406 256.929688 238.335938 252.75 240.332031 C 251.558594 240.902344 250.1875 241.203125 249.707031 241.003906 C 249.226562 240.800781 250.363281 240.078125 252.234375 239.398438 C 254.105469 238.714844 255.507812 237.847656 255.351562 237.46875 C 255.199219 237.089844 256.007812 236.863281 257.152344 236.96875 C 258.296875 237.074219 264.257812 234.964844 270.402344 232.28125 C 276.546875 229.601562 281.722656 227.769531 281.902344 228.210938 C 282.082031 228.652344 278.613281 230.460938 274.191406 232.226562 Z M 292.414062 217.019531 C 291.199219 218.136719 289.839844 218.898438 289.394531 218.710938 C 288.949219 218.523438 287.246094 219.5625 285.609375 221.019531 C 283.972656 222.472656 282.125 223.449219 281.5 223.1875 C 280.875 222.925781 279.261719 223.453125 277.914062 224.359375 C 276.566406 225.265625 271.46875 227.632812 266.589844 229.621094 C 261.070312 231.871094 257.78125 233.789062 257.886719 234.699219 C 258.011719 235.785156 257.878906 235.769531 257.355469 234.625 C 256.828125 233.46875 255.125 233.648438 250.480469 235.351562 C 247.085938 236.59375 243.960938 237.46875 243.539062 237.289062 C 243.117188 237.113281 242.855469 237.503906 242.957031 238.160156 C 243.058594 238.816406 242.753906 239.1875 242.28125 238.988281 C 241.804688 238.789062 239.941406 239.132812 238.140625 239.753906 C 233.4375 241.375 224.375 243.984375 221.242188 244.617188 C 219.765625 244.914062 212.746094 246.347656 205.644531 247.796875 C 198.539062 249.25 192.171875 250.203125 191.488281 249.917969 C 190.804688 249.628906 189.082031 249.644531 187.660156 249.953125 C 183.253906 250.902344 166.691406 251.734375 165.140625 251.082031 C 164.332031 250.738281 163.484375 250.90625 163.253906 251.449219 C 163.027344 251.992188 162.34375 252.128906 161.738281 251.75 C 161.128906 251.371094 159.886719 251.046875 158.972656 251.03125 C 155.671875 250.976562 139.867188 247.371094 135.878906 245.765625 C 133.632812 244.859375 131.636719 244.496094 131.445312 244.953125 C 131.25 245.414062 130.777344 245.347656 130.394531 244.808594 C 129.234375 243.179688 112.054688 235.21875 110.5 235.589844 C 108.886719 235.976562 92.894531 230.074219 92.425781 228.917969 C 92.257812 228.515625 91.367188 227.675781 90.441406 227.054688 C 89.511719 226.433594 87.464844 224.558594 85.890625 222.886719 C 84.316406 221.214844 82.097656 219.453125 80.957031 218.972656 C 79.011719 218.15625 79.027344 218.039062 81.183594 217.03125 C 82.445312 216.441406 83.6875 215.460938 83.945312 214.851562 C 84.203125 214.242188 84.757812 213.886719 85.175781 214.0625 C 85.597656 214.242188 87.398438 213.007812 89.183594 211.324219 C 92.914062 207.804688 98.140625 205.023438 109.46875 200.546875 C 113.882812 198.804688 117.542969 196.992188 117.609375 196.527344 C 117.671875 196.058594 118.886719 195.855469 120.304688 196.074219 C 121.726562 196.292969 123.109375 195.941406 123.382812 195.289062 C 123.804688 194.296875 134.917969 191.550781 136.25 192.109375 C 136.492188 192.210938 137.671875 195.738281 138.867188 199.945312 C 140.582031 205.964844 142.222656 208.964844 146.554688 214 C 151.597656 219.863281 152.859375 220.777344 161.417969 224.75 C 168.21875 227.90625 171.109375 228.847656 172.007812 228.210938 C 172.929688 227.550781 173.449219 227.734375 174.078125 228.941406 C 176.746094 234.070312 201.882812 232.316406 213.488281 226.191406 C 216.355469 224.675781 221.632812 220.945312 225.21875 217.898438 C 228.804688 214.851562 232.410156 211.992188 233.226562 211.542969 C 234.066406 211.082031 236.609375 206.082031 239.085938 200.03125 C 242.324219 192.109375 243.777344 189.4375 244.691406 189.71875 C 246.828125 190.375 247.414062 190.4375 249.046875 190.164062 C 251.363281 189.773438 278.238281 200.683594 277.761719 201.820312 C 277.539062 202.34375 278.550781 202.925781 280.085938 203.164062 C 281.582031 203.394531 283.132812 204.175781 283.535156 204.898438 C 283.9375 205.625 284.984375 206.601562 285.859375 207.066406 C 286.734375 207.535156 288.269531 208.355469 289.269531 208.894531 C 290.269531 209.433594 290.945312 210.207031 290.773438 210.617188 C 290.601562 211.023438 290.988281 211.589844 291.636719 211.871094 C 294.429688 213.089844 294.703125 214.90625 292.414062 217.019531 Z M 292.414062 217.019531 " fill-opacity="1" fill-rule="nonzero"/></g><g clip-path="url(#7e287eefad)"><path fill="#000000" d="M 361.027344 357.894531 C 361.027344 358.164062 361 358.433594 360.949219 358.699219 C 360.894531 358.964844 360.816406 359.222656 360.714844 359.472656 C 360.609375 359.722656 360.484375 359.960938 360.332031 360.1875 C 360.183594 360.410156 360.011719 360.621094 359.820312 360.8125 C 359.628906 361.003906 359.417969 361.175781 359.195312 361.324219 C 358.96875 361.476562 358.730469 361.601562 358.480469 361.707031 C 358.230469 361.808594 357.972656 361.886719 357.707031 361.941406 C 357.441406 361.992188 357.171875 362.019531 356.902344 362.019531 C 356.632812 362.019531 356.363281 361.992188 356.097656 361.941406 C 355.832031 361.886719 355.574219 361.808594 355.324219 361.707031 C 355.074219 361.601562 354.835938 361.476562 354.609375 361.324219 C 354.386719 361.175781 354.175781 361.003906 353.984375 360.8125 C 353.792969 360.621094 353.625 360.410156 353.472656 360.1875 C 353.324219 359.960938 353.195312 359.722656 353.089844 359.472656 C 352.988281 359.222656 352.910156 358.964844 352.855469 358.699219 C 352.804688 358.433594 352.777344 358.164062 352.777344 357.894531 C 352.777344 357.625 352.804688 357.355469 352.855469 357.089844 C 352.910156 356.824219 352.988281 356.566406 353.089844 356.316406 C 353.195312 356.066406 353.324219 355.828125 353.472656 355.601562 C 353.625 355.378906 353.792969 355.167969 353.984375 354.976562 C 354.175781 354.785156 354.386719 354.617188 354.609375 354.464844 C 354.835938 354.316406 355.074219 354.1875 355.324219 354.082031 C 355.574219 353.980469 355.832031 353.902344 356.097656 353.847656 C 356.363281 353.796875 356.632812 353.769531 356.902344 353.769531 C 357.171875 353.769531 357.441406 353.796875 357.707031 353.847656 C 357.972656 353.902344 358.230469 353.980469 358.480469 354.082031 C 358.730469 354.1875 358.96875 354.316406 359.195312 354.464844 C 359.417969 354.617188 359.628906 354.785156 359.820312 354.976562 C 360.011719 355.167969 360.183594 355.378906 360.332031 355.601562 C 360.484375 355.828125 360.609375 356.066406 360.714844 356.316406 C 360.816406 356.566406 360.894531 356.824219 360.949219 357.089844 C 361 357.355469 361.027344 357.625 361.027344 357.894531 Z M 361.027344 357.894531 " fill-opacity="1" fill-rule="nonzero"/></g></svg>